<mxfile host="app.diagrams.net" modified="2023-05-05T14:37:02.339Z" agent="Mozilla/5.0 (X11; Linux x86_64) AppleWebKit/537.36 (KHTML, like Gecko) Chrome/112.0.0.0 Safari/537.36" etag="ncy1XdCECnyLKNg2YznM" version="21.2.8" type="github">
  <diagram name="Page-1" id="d4ZDFiMwIcMQIwwQMBGA">
    <mxGraphModel dx="1360" dy="775" grid="1" gridSize="10" guides="1" tooltips="1" connect="1" arrows="1" fold="1" page="1" pageScale="1" pageWidth="827" pageHeight="1169" math="0" shadow="0">
      <root>
        <mxCell id="0" />
        <mxCell id="1" parent="0" />
        <mxCell id="c24DYZiNAbTheG2kU5k9-1" value="Technical" style="shape=umlActor;verticalLabelPosition=bottom;verticalAlign=top;html=1;outlineConnect=0;" vertex="1" parent="1">
          <mxGeometry x="70" y="370" width="30" height="60" as="geometry" />
        </mxCell>
        <mxCell id="c24DYZiNAbTheG2kU5k9-2" value="" style="ellipse;whiteSpace=wrap;html=1;" vertex="1" parent="1">
          <mxGeometry x="180" y="370" width="120" height="60" as="geometry" />
        </mxCell>
        <mxCell id="c24DYZiNAbTheG2kU5k9-3" value="Register&amp;nbsp;&lt;br&gt;Technical Person" style="text;html=1;strokeColor=none;fillColor=none;align=center;verticalAlign=middle;whiteSpace=wrap;rounded=0;" vertex="1" parent="1">
          <mxGeometry x="210" y="385" width="60" height="30" as="geometry" />
        </mxCell>
        <mxCell id="c24DYZiNAbTheG2kU5k9-4" value="" style="ellipse;whiteSpace=wrap;html=1;" vertex="1" parent="1">
          <mxGeometry x="320" y="370" width="120" height="60" as="geometry" />
        </mxCell>
        <mxCell id="c24DYZiNAbTheG2kU5k9-5" value="Log in" style="text;html=1;strokeColor=none;fillColor=none;align=center;verticalAlign=middle;whiteSpace=wrap;rounded=0;" vertex="1" parent="1">
          <mxGeometry x="350" y="385" width="60" height="30" as="geometry" />
        </mxCell>
        <mxCell id="c24DYZiNAbTheG2kU5k9-6" value="" style="ellipse;whiteSpace=wrap;html=1;" vertex="1" parent="1">
          <mxGeometry x="510" y="230" width="120" height="60" as="geometry" />
        </mxCell>
        <mxCell id="c24DYZiNAbTheG2kU5k9-7" value="View Enquiry" style="text;html=1;strokeColor=none;fillColor=none;align=center;verticalAlign=middle;whiteSpace=wrap;rounded=0;" vertex="1" parent="1">
          <mxGeometry x="540" y="245" width="60" height="30" as="geometry" />
        </mxCell>
        <mxCell id="c24DYZiNAbTheG2kU5k9-8" value="" style="ellipse;whiteSpace=wrap;html=1;" vertex="1" parent="1">
          <mxGeometry x="510" y="340" width="120" height="60" as="geometry" />
        </mxCell>
        <mxCell id="c24DYZiNAbTheG2kU5k9-9" value="Response To Service Agent" style="text;html=1;strokeColor=none;fillColor=none;align=center;verticalAlign=middle;whiteSpace=wrap;rounded=0;" vertex="1" parent="1">
          <mxGeometry x="540" y="355" width="60" height="30" as="geometry" />
        </mxCell>
        <mxCell id="c24DYZiNAbTheG2kU5k9-10" value="" style="ellipse;whiteSpace=wrap;html=1;" vertex="1" parent="1">
          <mxGeometry x="500" y="420" width="140" height="100" as="geometry" />
        </mxCell>
        <mxCell id="c24DYZiNAbTheG2kU5k9-11" value="Update status of Enquiry to Service Agent" style="text;html=1;strokeColor=none;fillColor=none;align=center;verticalAlign=middle;whiteSpace=wrap;rounded=0;" vertex="1" parent="1">
          <mxGeometry x="540" y="455" width="60" height="30" as="geometry" />
        </mxCell>
        <mxCell id="c24DYZiNAbTheG2kU5k9-12" value="" style="endArrow=none;html=1;rounded=0;exitX=0.5;exitY=0.5;exitDx=0;exitDy=0;exitPerimeter=0;entryX=0;entryY=0.5;entryDx=0;entryDy=0;" edge="1" parent="1" source="c24DYZiNAbTheG2kU5k9-1" target="c24DYZiNAbTheG2kU5k9-2">
          <mxGeometry width="50" height="50" relative="1" as="geometry">
            <mxPoint x="390" y="400" as="sourcePoint" />
            <mxPoint x="440" y="350" as="targetPoint" />
          </mxGeometry>
        </mxCell>
        <mxCell id="c24DYZiNAbTheG2kU5k9-13" value="" style="endArrow=none;html=1;rounded=0;exitX=1;exitY=0.5;exitDx=0;exitDy=0;entryX=0;entryY=0.5;entryDx=0;entryDy=0;" edge="1" parent="1" source="c24DYZiNAbTheG2kU5k9-2" target="c24DYZiNAbTheG2kU5k9-4">
          <mxGeometry width="50" height="50" relative="1" as="geometry">
            <mxPoint x="390" y="400" as="sourcePoint" />
            <mxPoint x="440" y="350" as="targetPoint" />
          </mxGeometry>
        </mxCell>
        <mxCell id="c24DYZiNAbTheG2kU5k9-14" value="" style="endArrow=none;html=1;rounded=0;entryX=0;entryY=0.5;entryDx=0;entryDy=0;exitX=0.8;exitY=0.117;exitDx=0;exitDy=0;exitPerimeter=0;" edge="1" parent="1" source="c24DYZiNAbTheG2kU5k9-4" target="c24DYZiNAbTheG2kU5k9-6">
          <mxGeometry width="50" height="50" relative="1" as="geometry">
            <mxPoint x="390" y="400" as="sourcePoint" />
            <mxPoint x="440" y="350" as="targetPoint" />
          </mxGeometry>
        </mxCell>
        <mxCell id="c24DYZiNAbTheG2kU5k9-15" value="" style="endArrow=none;html=1;rounded=0;entryX=0.058;entryY=0.733;entryDx=0;entryDy=0;entryPerimeter=0;exitX=0.992;exitY=0.333;exitDx=0;exitDy=0;exitPerimeter=0;" edge="1" parent="1" source="c24DYZiNAbTheG2kU5k9-4" target="c24DYZiNAbTheG2kU5k9-8">
          <mxGeometry width="50" height="50" relative="1" as="geometry">
            <mxPoint x="390" y="400" as="sourcePoint" />
            <mxPoint x="440" y="350" as="targetPoint" />
          </mxGeometry>
        </mxCell>
        <mxCell id="c24DYZiNAbTheG2kU5k9-16" value="" style="endArrow=none;html=1;rounded=0;entryX=0.043;entryY=0.21;entryDx=0;entryDy=0;entryPerimeter=0;exitX=0.942;exitY=0.733;exitDx=0;exitDy=0;exitPerimeter=0;" edge="1" parent="1" source="c24DYZiNAbTheG2kU5k9-4" target="c24DYZiNAbTheG2kU5k9-10">
          <mxGeometry width="50" height="50" relative="1" as="geometry">
            <mxPoint x="430" y="410" as="sourcePoint" />
            <mxPoint x="440" y="350" as="targetPoint" />
          </mxGeometry>
        </mxCell>
        <mxCell id="c24DYZiNAbTheG2kU5k9-18" value="" style="ellipse;whiteSpace=wrap;html=1;" vertex="1" parent="1">
          <mxGeometry x="760" y="440" width="120" height="80" as="geometry" />
        </mxCell>
        <mxCell id="c24DYZiNAbTheG2kU5k9-19" value="Add status of replace Hardware" style="text;html=1;strokeColor=none;fillColor=none;align=center;verticalAlign=middle;whiteSpace=wrap;rounded=0;" vertex="1" parent="1">
          <mxGeometry x="790" y="460" width="60" height="30" as="geometry" />
        </mxCell>
        <mxCell id="c24DYZiNAbTheG2kU5k9-23" value="" style="endArrow=none;html=1;rounded=0;entryX=-0.017;entryY=0.413;entryDx=0;entryDy=0;entryPerimeter=0;exitX=1;exitY=0.5;exitDx=0;exitDy=0;" edge="1" parent="1" source="c24DYZiNAbTheG2kU5k9-10" target="c24DYZiNAbTheG2kU5k9-18">
          <mxGeometry width="50" height="50" relative="1" as="geometry">
            <mxPoint x="660" y="485" as="sourcePoint" />
            <mxPoint x="710" y="435" as="targetPoint" />
          </mxGeometry>
        </mxCell>
      </root>
    </mxGraphModel>
  </diagram>
</mxfile>
